<?xml version="1.0" encoding="utf-8"?>
<!-- Generator: Adobe Illustrator 24.3.0, SVG Export Plug-In . SVG Version: 6.00 Build 0)  -->
<svg version="1.1" id="Layer_1" xmlns="http://www.w3.org/2000/svg" xmlns:xlink="http://www.w3.org/1999/xlink" x="0px" y="0px"
	 viewBox="0 0 128.5 54.1" style="enable-background:new 0 0 128.5 54.1;" xml:space="preserve">
<g>
	<path d="M20.7,25.9h-3.6L16.7,24c-1.5,1.7-4,2.2-6,2.2c-6.5,0-10.7-4-10.7-8.9s4.2-8.9,10.7-8.9c4.4,0,9.2,1.9,9.7,6.2h-5.5
		c-0.2-1.5-2-2.4-4.2-2.4c-3.6,0-5,2.5-5,5.1s1.4,5.1,5,5.1c2.8,0,4.6-1,4.9-2.6h-3.9v-3.3h9V25.9z"/>
	<path d="M26.9,20.6c0.1,1.7,1.3,2.8,3.5,2.8c1.1,0.1,2.3-0.4,2.9-1.4h4.8c-0.9,2.9-4.3,4.1-7.7,4.1c-5.1,0-8.5-2.5-8.5-6.6
		c0-3.8,3.8-6.5,8.4-6.5c5.6,0,8.4,3.4,8.1,7.6H26.9z M33.2,18.4c-0.2-1.5-1.5-2.6-3-2.5c-1.6-0.1-3,1-3.3,2.5H33.2z"/>
	<path d="M47.3,13.1c4.8,0,8.2,2.9,8.2,6.6s-3.4,6.6-8.2,6.6s-8.2-2.9-8.2-6.6S42.5,13.1,47.3,13.1z M47.3,23.1
		c2.4,0,3.1-1.9,3.1-3.5s-0.8-3.5-3.1-3.5s-3.1,1.9-3.1,3.5S44.9,23.1,47.3,23.1z"/>
	<path d="M56.4,13.4h4.9v2.2h0.1c0.8-1.6,2.5-2.4,4.7-2.4c0.4,0,0.8,0,1.2,0.1V17c-0.6-0.2-1.3-0.2-1.9-0.2c-2.5,0-3.8,1.4-3.8,3V26
		h-5.1L56.4,13.4L56.4,13.4z"/>
	<path d="M83.5,24.4c0,2-0.5,5.9-7.8,5.9c-3.6,0-7-0.7-7.6-4h5.1c0.1,0.5,0.4,0.9,0.9,1.1c0.6,0.2,1.2,0.3,1.9,0.3
		c2.4,0,2.7-1.4,2.7-2.9v-1.3h-0.1c-1,1.2-2.6,1.9-4.1,1.8c-4.7,0-6.8-2.7-6.8-6.2c0-3.3,2.4-6.1,6.8-6.1c1.6-0.1,3.2,0.6,4.2,1.9
		h0.1v-1.6h4.9v11.1H83.5z M75.6,16.2c-1.5-0.1-2.9,1-3,2.6c0,0.2,0,0.4,0,0.5c-0.1,1.5,1,2.8,2.5,2.9c0.1,0,0.3,0,0.4,0
		c1.5,0.2,2.9-0.9,3.1-2.4c0-0.2,0-0.4,0-0.5c0.2-1.6-1-3-2.5-3.1C76,16.2,75.8,16.2,75.6,16.2z"/>
	<path d="M85.5,13.4h5.1v12.5h-5.1V13.4z M90.6,11.9h-5.1V8.8h5.1V11.9z"/>
	<path d="M92.1,17.3c0.1-1.5,1-2.8,2.4-3.3c1.6-0.6,3.3-0.9,4.9-0.9c3.7,0,7.3,0.6,7.3,4.2v5.5c-0.1,1.1,0.1,2.2,0.6,3.2h-5.1
		c-0.2-0.4-0.3-0.8-0.3-1.2c-1.5,1.1-3.3,1.6-5.2,1.5c-3,0-5.3-1.2-5.3-3.8c0-4.1,5.5-3.7,9.1-4.3c0.9-0.1,1.4-0.4,1.4-1.1
		c0-0.9-1.4-1.3-2.5-1.3c-1.4,0-2.3,0.5-2.6,1.6h-4.7V17.3z M98.7,23.7c2.4,0,3.2-1.1,3.1-3.7c-1,0.3-2.1,0.5-3.2,0.7
		s-2.1,0.6-2.1,1.6S97.5,23.7,98.7,23.7L98.7,23.7z"/>
	<path d="M61,32.8h-6.4v13.3H49V32.8h-6.4V29h18.3v3.8H61z"/>
	<path d="M61.6,40.9c0.1,1.7,1.3,2.8,3.5,2.8c1.1,0.1,2.3-0.4,2.9-1.4h4.7c-0.9,2.9-4.3,4.1-7.7,4.1c-5.1,0-8.5-2.5-8.5-6.6
		c0-3.8,3.8-6.5,8.4-6.5c5.6,0,8.4,3.4,8.1,7.6L61.6,40.9z M67.9,38.6c-0.2-1.5-1.5-2.6-3-2.5c-1.6-0.1-3,1-3.3,2.5H67.9z"/>
	<path d="M85,38.2c0-1.1-1.2-1.8-2.5-1.8c-2.9,0-3.3,2-3.3,3.7c-0.1,1.7,1.1,3.1,2.7,3.2c0.1,0,0.2,0,0.3,0c1.8,0,2.7-0.8,2.9-2.1h5
		c-0.4,3.3-3.7,5.3-7.8,5.3c-4.7,0-8.2-2.6-8.2-6.4s3.2-6.8,8.2-6.8c3.9,0,7.3,1.6,7.7,4.9L85,38.2z"/>
	<path d="M91.2,29h5.1v6.4h0.1c0.8-1.3,2.9-2.1,4.7-2.1c5.2,0,5.6,3,5.6,4.8v8h-5.1v-6c0-1.7,0.2-3.4-2.6-3.4
		c-1.4-0.1-2.6,0.9-2.8,2.3c0,0.1,0,0.2,0,0.4v6.8h-5.1L91.2,29z"/>
	<path d="M127,51.1c0.8,0,1.5,0.7,1.5,1.5s-0.7,1.5-1.5,1.5s-1.5-0.7-1.5-1.5l0,0C125.5,51.8,126.1,51.1,127,51.1
		C126.9,51.1,127,51.1,127,51.1z M127,54c0.8,0,1.4-0.6,1.4-1.4s-0.6-1.4-1.4-1.4s-1.4,0.6-1.4,1.4l0,0C125.5,53.4,126.2,54,127,54
		C126.9,54,127,54,127,54L127,54z M126.5,51.7h0.6c0.4,0,0.6,0.2,0.6,0.5c0,0.2-0.2,0.4-0.4,0.5l0,0l0.5,0.8h-0.1l-0.5-0.8h-0.5v0.8
		h-0.1L126.5,51.7z M127,52.6c0.2,0,0.6,0,0.6-0.4s-0.2-0.4-0.5-0.4h-0.5v0.8L127,52.6z"/>
	<polygon points="113.5,30 118.8,49.8 113.5,49.8 	"/>
	<polygon points="124.1,30 118.8,49.8 124.1,49.8 	"/>
	<polyline points="121.4,39.7 118.8,0 116.2,39.7 	"/>
	<rect x="113.5" y="51.8" width="10.6" height="2"/>
</g>
</svg>
