<svg xmlns="http://www.w3.org/2000/svg" viewBox="0 0 100 91.15"><defs><style>.cls-1{fill:#fff;}</style></defs><g id="Layer_2" data-name="Layer 2"><g id="Layer_1-2" data-name="Layer 1"><path class="cls-1" d="M31.27,50.87,52,15.33,28,0C8.7,7.93,8.7,7.93,0,29.71c.63.62,1.52,1.14,1.83,1.9.92,2.27,1.63,4.63,2.38,7C9.49,55.17,16.46,70.2,36.07,73.79l5.29-19.36Z"/><path class="cls-1" d="M98.85,15.64,78,.88C71.14,2.49,65.89,2.64,61.92,5S55.25,11.79,52,15.33H78.56L67.16,37.84c2.26,2.6,3.94,4.51,7,8l-38.05,28h0L50.44,91.15C62.15,80.46,72,71.24,82.08,62.34,95.72,50.32,103,36,98.85,15.64Z"/></g></g></svg>