<svg xmlns="http://www.w3.org/2000/svg" viewBox="0 0 100 82.47"><defs><style>.cls-1{fill:#fff;}</style></defs><g id="Layer_2" data-name="Layer 2"><g id="Layer_1-2" data-name="Layer 1"><path class="cls-1" d="M90.48,1.44a569.69,569.69,0,0,0-81,0C4.29.63,2.74,5.18,0,7.67V72.76l9.7,9.71H90.3l9.7-9.71V11Zm2,70.72c-1.2,1.21-2,2-2.91,2.91H10c-1-1.69-2.48-3.22-2.72-4.93-.44-3.11.05-6.34-.16-9.5C6.3,48.28,9.05,35.77,4.94,23.49,3.76,20,4.76,15.71,4.76,12.17l5.68-5.69H89.56l2.88,2.89Z"/><path class="cls-1" d="M50.61,41c8.72-1.33,8.72-1.33,12.81,6.41,1.48-5.17.29-9.82,1-14.25s2-8.56,3.3-13.77c4.86,3.61,5.28,8.4,6,12.7.63,3.77.13,7.73,1.64,12.57.59-2.32,1.17-4.64,1.38-5.48l10.56,1C81,48.86,75.55,56.33,69.74,64.29c-9.19-5.94-12-15.72-19.13-23.26"/><path class="cls-1" d="M33.34,63.41l-6.93-5.49V36.43l-8.72,7.72c-1.17-1.16-2.29-2.28-3.76-3.72,3.77-8,9.74-14.26,16.38-20.33C39.2,24.14,41,34,50.08,40.17l-8.21,3.39L33.34,32.73Z"/></g></g></svg>