<svg xmlns="http://www.w3.org/2000/svg" viewBox="0 0 53.59 100"><defs><style>.cls-1{fill:#fff;}</style></defs><g id="Layer_2" data-name="Layer 2"><g id="Layer_1-2" data-name="Layer 1"><path class="cls-1" d="M7.61,22.15,31.33,0c2.59,4,4.55,8.69,7.93,11.82,3.62,3.36,8.58,5.28,13.56,8.17V37c-11.92,6.76-15.74-7.43-26.73-9.84.78,5.08.14,9.32,1.89,10.88,8.35,7.44,17.34,14.15,25.61,20.71V78.43L29.26,100A28.55,28.55,0,0,0,8,84.53C5.67,78,3.23,71.28,0,62.37l17.57-.83c4.79,5,4.5,15.16,16.32,14.15.39-3.87.8-8,1.28-12.89L7.61,47.26Z"/></g></g></svg>