<svg xmlns="http://www.w3.org/2000/svg" viewBox="0 0 90.43 38.13"><title>logo</title><g id="Layer_2" data-name="Layer 2"><g id="Layer_1-2" data-name="Layer 1"><path d="M14.57,18.24H12l-.28-1.34a5.65,5.65,0,0,1-4.22,1.55C3,18.45,0,15.64,0,12.19S3,5.93,7.53,5.93c3.1,0,6.47,1.34,6.83,4.36H10.49c-.14-1.06-1.41-1.69-3-1.69A3.3,3.3,0,0,0,4,12.19a3.3,3.3,0,0,0,3.52,3.59c2,0,3.24-.7,3.45-1.83H8.23V11.63h6.33Z"/><path d="M18.93,14.51c.07,1.2.91,2,2.46,2a2.17,2.17,0,0,0,2-1h3.38c-.63,2-3,2.89-5.42,2.89-3.59,0-6-1.76-6-4.64,0-2.67,2.67-4.57,5.91-4.57,3.94,0,5.91,2.39,5.7,5.35ZM23.36,13a2,2,0,0,0-2.11-1.76A2.22,2.22,0,0,0,18.93,13Z"/><path d="M33.29,9.23c3.38,0,5.77,2,5.77,4.64s-2.39,4.64-5.77,4.64-5.77-2-5.77-4.64S29.91,9.23,33.29,9.23Zm0,7a2.17,2.17,0,0,0,2.18-2.46,2.2,2.2,0,1,0-4.36,0A2.17,2.17,0,0,0,33.29,16.27Z"/><path d="M39.69,9.45h3.45V11h.07a3.43,3.43,0,0,1,3.31-1.69,3.43,3.43,0,0,1,.84.07V12A4.33,4.33,0,0,0,46,11.84c-1.76,0-2.67,1-2.67,2.11v4.36H39.76l-.07-8.87Z"/><path d="M58.76,17.19c0,1.41-.35,4.15-5.49,4.15-2.53,0-4.93-.49-5.35-2.81h3.59a1,1,0,0,0,.63.77,4.1,4.1,0,0,0,1.34.21c1.69,0,1.9-1,1.9-2v-.91h-.07a3.56,3.56,0,0,1-2.89,1.27c-3.31,0-4.79-1.9-4.79-4.36s1.69-4.29,4.79-4.29a3.47,3.47,0,0,1,3,1.34h.07V9.38H58.9v7.81ZM53.2,11.42a2,2,0,0,0-2.11,1.83v.35a1.9,1.9,0,0,0,1.76,2h.28a2,2,0,0,0,2.18-1.69V13.6a1.94,1.94,0,0,0-1.76-2.18Z"/><path d="M60.17,9.45h3.59v8.8H60.17Zm3.59-1.06H60.17V6.21h3.59Z"/><path d="M64.81,12.19A2.6,2.6,0,0,1,66.5,9.87,9.94,9.94,0,0,1,70,9.23c2.6,0,5.14.42,5.14,3v3.87a4.17,4.17,0,0,0,.42,2.25H71.92a1.87,1.87,0,0,1-.21-.84,5.6,5.6,0,0,1-3.66,1.06c-2.11,0-3.73-.84-3.73-2.67,0-2.89,3.87-2.6,6.4-3,.63-.07,1-.28,1-.77s-1-.91-1.76-.91c-1,0-1.62.35-1.83,1.13H64.81Zm4.64,4.5c1.69,0,2.25-.77,2.18-2.6a21.15,21.15,0,0,1-2.25.49c-.77.14-1.48.42-1.48,1.13s.7,1,1.55,1Z"/><path d="M42.93,23.1h-4.5v9.36H34.48V23.1H30V20.42H42.86V23.1Z"/><path d="M43.35,28.8c.07,1.2.91,2,2.46,2a2.17,2.17,0,0,0,2-1h3.31c-.63,2-3,2.89-5.42,2.89-3.59,0-6-1.76-6-4.64,0-2.67,2.67-4.57,5.91-4.57,3.94,0,5.91,2.39,5.7,5.35Zm4.43-1.62a2,2,0,0,0-2.11-1.76,2.22,2.22,0,0,0-2.32,1.76Z"/><path d="M59.82,26.9c0-.77-.84-1.27-1.76-1.27-2,0-2.32,1.41-2.32,2.6a2.07,2.07,0,0,0,1.9,2.25h.21c1.27,0,1.9-.56,2-1.48h3.52c-.28,2.32-2.6,3.73-5.49,3.73-3.31,0-5.77-1.83-5.77-4.5s2.25-4.79,5.77-4.79c2.74,0,5.14,1.13,5.42,3.45Z"/><path d="M64.18,20.42h3.59v4.5h.07a4.1,4.1,0,0,1,3.31-1.48c3.66,0,3.94,2.11,3.94,3.38v5.63H71.5V28.24c0-1.2.14-2.39-1.83-2.39a1.86,1.86,0,0,0-2,1.62v5.07H64.11Z"/><path d="M89.37,36A1.06,1.06,0,1,1,88.32,37h0A1,1,0,0,1,89.37,36Zm0,2a1,1,0,1,0-1-1h0a.92.92,0,0,0,1,1ZM89,36.4h.42c.28,0,.42.14.42.35a.47.47,0,0,1-.28.35h0l.35.56h-.07l-.35-.56h-.35v.56h-.07Zm.35.63c.14,0,.42,0,.42-.28s-.14-.28-.35-.28h-.35V37Z"/><path d="M83.93,35.31H79.62V19.23Zm-3.81-.5h3.15L80.12,23Z"/><path d="M87.58,35.31H83.28l4.31-16.08Zm-3.65-.5h3.15V23Z"/><polygon points="85.18 27.97 83.6 3.84 82.02 27.97 81.53 27.94 83.35 0 83.85 0 85.68 27.94 85.18 27.97"/><path d="M87.58,38.13h-8V36.22h8Zm-7.46-.5h7v-.91h-7Z"/></g></g></svg>